<svg xmlns="http://www.w3.org/2000/svg" width="105mm" height="45mm" viewBox="0 0 297.6378 127.5591">
  <title>Logo_BayWa-re</title>
  <g id="Schutzraum">
    <rect width="297.6378" height="127.5591" fill="none"/>
  </g>
  <g id="Bildmarke">
    <rect x="28.3465" y="42.5197" width="42.5197" height="42.5197" fill="#f9d900"/>
    <polygon points="28.346 42.52 70.866 28.346 85.039 70.866 42.52 85.039 28.346 42.52 28.346 42.52" fill="#78b90f" fill-rule="evenodd"/>
    <rect x="42.5197" y="28.3465" width="42.5197" height="42.5197" fill="#008c46"/>
  </g>
  <g id="Wortmarke">
    <path d="M116.5755,55.43v-.1634a5.397,5.397,0,0,0,4.4939-5.6787c0-3.84-2.6963-7.0677-8.4159-7.0677H99.2126V70.8723h12.1336c5.0659,0,10.99-.98,10.99-8.4976a6.8885,6.8885,0,0,0-5.76-6.9452Zm72.5973-12.91-3.636,21.1623h-.2043L181.288,42.6014h-5.4744L171.6465,63.682h-.2043L167.6428,42.52h-5.5153l5.8013,28.3526h6.3323l4.0446-19.2014h.2042l4.0446,19.2014h6.2914L194.6881,42.52ZM104.7279,46.891h6.2506c2.8189,0,4.3714,1.1848,4.3714,3.4318,0,1.3481-.572,3.5134-4.3714,3.5134h-6.2506V46.891Zm28.9653,2.6964c-5.27,0-8.4976,2.4512-8.4976,6.7817h5.0251c0-1.9609.8579-2.86,3.5951-2.86,2.5738,0,3.5951.7353,3.5951,2.4512v1.3482c-1.7975.286-6.128,1.103-7.19,1.3073-2.86.5311-6.169,2.1653-6.169,6.3324a6.4689,6.4689,0,0,0,6.4958,6.414,9.5694,9.5694,0,0,0,6.6592-2.1653h.2042l.2452,1.6751h4.78V56.2874c0-4.9024-2.9824-6.7-8.7428-6.7Zm69.4107,0c-5.27,0-8.4976,2.4512-8.4976,6.7817h5.0251c0-1.9609.8579-2.86,3.5951-2.86,2.5738,0,3.5951.7353,3.5951,2.4512v1.3482c-1.7975.286-6.128,1.103-7.19,1.3073-2.86.5311-6.169,2.1653-6.169,6.3324a6.4689,6.4689,0,0,0,6.4958,6.414,9.5694,9.5694,0,0,0,6.6592-2.1653h.2042l.2452,1.6751h4.78V56.2874c0-4.9024-2.9824-6.7-8.7428-6.7Zm31.58,4.78v-4.78c-3.4726,0-5.4336.8171-6.8635,2.86h-.2042l-.286-2.0019h-4.78v20.427h5.025V60.4137c0-4.78,2.1244-6.6592,7.1086-6.0464Zm12.91-4.78c-6.5366,0-9.56,3.3092-9.56,10.5812,0,7.64,3.0232,11.153,9.56,11.153,5.1476,0,8.0073-1.7567,9.1513-5.5969l-4.9842-1.2256c-.6128,1.8792-1.7976,2.6555-4.1671,2.6555-2.9823,0-4.3305-1.5525-4.5348-5.3519h14.0129s.0408-.7762.0408-1.7159c0-7.19-2.9823-10.4994-9.5189-10.4994ZM153.058,64.6216h-.2043l-4.3305-14.1763h-5.311l7.3128,20.9172c-.3268,2.4512-1.389,2.9823-5.1475,2.0836v3.7994a11.813,11.813,0,0,0,3.5542.6128c3.5135,0,5.311-1.5116,6.3732-5.1885,1.2665-4.3713,6.6592-22.2245,6.6592-22.2245h-5.1884L153.058,64.6216ZM243.1,58.1259c.2042-3.2684,1.5524-4.6165,4.4939-4.6165,3.2275,0,4.4939,1.2664,4.4939,4.6165ZM111.5505,66.0515h-6.8226V57.9624h6.7409c3.4725,0,5.1475,1.3482,5.1475,4.2488,0,2.6147-1.5933,3.84-5.0658,3.84Zm25.86-.4494a11.7,11.7,0,0,1-5.0658,1.5933c-1.7159,0-3.0232-1.0213-3.0232-2.4512,0-1.8384,1.5524-2.247,3.2683-2.6147,1.3073-.2859,4.8207-.98,4.8207-.98v4.4531Zm69.4107,0a11.7,11.7,0,0,1-5.0658,1.5933c-1.7159,0-3.0232-1.0213-3.0232-2.4512,0-1.8384,1.5524-2.247,3.2683-2.6147,1.3073-.2859,4.8207-.98,4.8207-.98v4.4531Zm52.4972,5.27h5.0251V65.643h-5.0251v5.2293Zm-28.23,0h5.0251V65.7247h-5.0251v5.1476Z" fill="#2e2e2e"/>
  </g>
  <g id="Claim">
    <path d="M100.7422,90.9812c.6641-1.65,1.9119-2.556,4.2465-2.556v1.5295a3.6549,3.6549,0,0,0-4.2465,2.4353v6.8226h-1.53V88.5459h1.53v2.4353Zm4.3448,8.332a1.1069,1.1069,0,1,1,1.107-1.1069,1.0458,1.0458,0,0,1-1.107,1.1069Zm8.6944-1.1673a2.6734,2.6734,0,0,0,2.7974-2.3748l1.61.4025c-.6642,2.2742-2.0931,3.24-4.5283,3.24-3.24,0-4.8905-2.4553-4.8905-5.7358,0-3.14,1.8314-5.3333,4.87-5.3333,2.9786,0,4.6088,2.0931,4.6289,5.7358H110.3c.1208,2.556,1.3283,4.0654,3.4818,4.0654Zm-.1208-8.5735c-1.9321,0-3.0994,1.2075-3.3207,3.3207h6.2993c-.0805-2.0931-1.127-3.3207-2.9786-3.3207Zm8.2717,9.7408a1.1069,1.1069,0,1,1,1.1069-1.1069,1.0458,1.0458,0,0,1-1.1069,1.1069Zm8.7045-1.4088.3824,1.2277a3.5816,3.5816,0,0,1-1.4893.2817c-2.0327,0-2.9786-1.0264-2.9786-3.22v-6.42H124.8V88.5459h1.751V85.1246h1.53v3.4213h2.6969v1.2277h-2.6969v6.42c0,1.3686.322,1.9925,1.3686,1.9925a2.5436,2.5436,0,0,0,1.1874-.2818Zm7.2654-9.56c2.0729,0,3.5019,1.449,3.5019,3.8037v7.0642h-1.53v-7.044a2.2419,2.2419,0,0,0-2.4352-2.4956,3.6611,3.6611,0,0,0-2.9786,1.7107v7.8289h-1.53V85.1246h1.53v4.9911a4.1436,4.1436,0,0,1,3.4415-1.771Zm7.2855-1.8918a1.107,1.107,0,1,1,1.1069-1.107,1.0458,1.0458,0,0,1-1.1069,1.107Zm-.7648,12.76V88.5459h1.53V99.2126Zm9.7207-10.8679c2.073,0,3.5019,1.449,3.5019,3.8037v7.0642H156.116v-7.044a2.242,2.242,0,0,0-2.4352-2.4956,3.6611,3.6611,0,0,0-2.9787,1.7107v7.8289h-1.53V88.5459h1.53v1.57a4.1438,4.1438,0,0,1,3.4415-1.771Zm13.927,10.8679L163.965,93.98l-1.7711,1.61v3.6227h-1.53V85.1246h1.53v9.0163l5.6755-5.595h2.0931l-4.9711,4.4881,5.0113,6.1786Zm12.88-1.0667a2.6735,2.6735,0,0,0,2.7975-2.3748l1.61.4025c-.6641,2.2742-2.093,3.24-4.5282,3.24-3.24,0-4.8906-2.4553-4.8906-5.7358,0-3.14,1.8314-5.3333,4.87-5.3333,2.9786,0,4.6088,2.0931,4.6289,5.7358h-7.97c.1208,2.556,1.3284,4.0654,3.4818,4.0654Zm-.1207-8.5735c-1.9321,0-3.0994,1.2075-3.3208,3.3207h6.2994c-.0805-2.0931-1.1271-3.3207-2.9786-3.3207Zm12.0955-1.2277c2.073,0,3.5019,1.449,3.5019,3.8037v7.0642h-1.53v-7.044a2.2419,2.2419,0,0,0-2.4352-2.4956,3.6611,3.6611,0,0,0-2.9786,1.7107v7.8289h-1.5295V88.5459h1.5295v1.57a4.1437,4.1437,0,0,1,3.4415-1.771Zm10.8276,9.8012a2.6734,2.6734,0,0,0,2.7975-2.3748l1.61.4025c-.6642,2.2742-2.0931,3.24-4.5283,3.24-3.24,0-4.8905-2.4553-4.8905-5.7358,0-3.14,1.8314-5.3333,4.87-5.3333,2.9786,0,4.6088,2.0931,4.6289,5.7358h-7.97c.1208,2.556,1.3283,4.0654,3.4817,4.0654Zm-.1207-8.5735c-1.9321,0-3.0994,1.2075-3.3207,3.3207h6.2993c-.0805-2.0931-1.127-3.3207-2.9786-3.3207Zm8.6541,1.4088c.6641-1.65,1.9119-2.556,4.2465-2.556v1.5295a3.6549,3.6549,0,0,0-4.2465,2.4353v6.8226h-1.53V88.5459h1.53v2.4353Zm12.5788-2.4353h1.53v9.64c0,2.4754-1.3082,4.4477-4.6088,4.4477-2.3547,0-4.1258-.9861-4.5685-3.0188l1.4289-.4428c.2817,1.7107,1.8113,2.2742,3.2,2.2742,2.2138,0,3.0188-1.2679,3.0188-3.12v-1.69a4.2736,4.2736,0,0,1-3.4213,1.8515c-2.5761,0-4.1258-2.0326-4.1258-5.0716s1.55-5.0717,4.1258-5.0717a4.2736,4.2736,0,0,1,3.4213,1.8515v-1.65ZM221.7664,97.16a3.57,3.57,0,0,0,3.0993-1.9522V91.6453a3.528,3.528,0,0,0-3.0993-1.9723c-1.8516,0-2.9183,1.4893-2.9183,3.7434s1.0667,3.7434,2.9183,3.7434Zm14.1081-8.6139h1.7509l-4.2666,11.512a3.3671,3.3671,0,0,1-3.3811,2.5157,5.7409,5.7409,0,0,1-.6239-.04l-.3019-1.4088a4.4949,4.4949,0,0,0,.9459.1208,1.878,1.878,0,0,0,1.8515-1.1874l.3824-.7044-4.0251-10.8076h1.7711l2.9786,9.0164,2.9182-9.0164Z" fill="#2e2e2e"/>
  </g>
</svg>
